<mxfile host="app.diagrams.net" modified="2023-11-07T00:00:00.000Z" agent="5.0 (Macintosh)" etag="111222333" version="15.5.0" type="device">
  <diagram id="component-message-flow" name="Component Message Flow">
    <mxGraphModel dx="1298" dy="834" grid="1" gridSize="10" guides="1" tooltips="1" connect="1" arrows="1" fold="1" page="1" pageScale="1" pageWidth="850" pageHeight="1100" math="0" shadow="0">
      <root>
        <mxCell id="0" />
        <mxCell id="1" parent="0" />
        <!-- Main background -->
        <mxCell id="2" value="" style="rounded=1;whiteSpace=wrap;html=1;fillColor=#F5F5F5;strokeColor=#CCCCCC;strokeWidth=2;" vertex="1" parent="1">
          <mxGeometry x="50" y="50" width="700" height="350" as="geometry" />
        </mxCell>
        <mxCell id="3" value="Component Message Flow" style="text;html=1;strokeColor=none;fillColor=none;align=center;verticalAlign=middle;whiteSpace=wrap;rounded=0;fontSize=20;fontStyle=1;" vertex="1" parent="1">
          <mxGeometry x="250" y="10" width="300" height="30" as="geometry" />
        </mxCell>
        
        <!-- Components -->
        <mxCell id="4" value="UI / Commands" style="rounded=1;whiteSpace=wrap;html=1;fillColor=#2C2C32;strokeColor=#007ACC;strokeWidth=2;fontColor=#FFFFFF;fontSize=14;" vertex="1" parent="1">
          <mxGeometry x="100" y="100" width="150" height="60" as="geometry" />
        </mxCell>
        
        <mxCell id="5" value="VS Code Settings" style="rounded=1;whiteSpace=wrap;html=1;fillColor=#9CDCFE;strokeColor=#333333;strokeWidth=2;fontSize=14;" vertex="1" parent="1">
          <mxGeometry x="550" y="100" width="150" height="60" as="geometry" />
        </mxCell>
        
        <mxCell id="6" value="GitDiffReader" style="rounded=1;whiteSpace=wrap;html=1;fillColor=#4EC9B0;strokeColor=#333333;strokeWidth=2;fontSize=14;" vertex="1" parent="1">
          <mxGeometry x="100" y="250" width="150" height="60" as="geometry" />
        </mxCell>
        
        <mxCell id="7" value="TemplateManager" style="rounded=1;whiteSpace=wrap;html=1;fillColor=#B5CEA8;strokeColor=#333333;strokeWidth=2;fontSize=14;" vertex="1" parent="1">
          <mxGeometry x="325" y="250" width="150" height="60" as="geometry" />
        </mxCell>
        
        <mxCell id="8" value="AI Service" style="rounded=1;whiteSpace=wrap;html=1;fillColor=#569CD6;strokeColor=#333333;strokeWidth=2;fontSize=14;" vertex="1" parent="1">
          <mxGeometry x="550" y="250" width="150" height="60" as="geometry" />
        </mxCell>
        
        <!-- Messages -->
        <mxCell id="9" value="" style="endArrow=classic;html=1;strokeWidth=2;exitX=0.5;exitY=1;exitDx=0;exitDy=0;entryX=0.5;entryY=0;entryDx=0;entryDy=0;dashed=1;" edge="1" parent="1" source="4" target="6">
          <mxGeometry width="50" height="50" relative="1" as="geometry">
            <mxPoint x="175" y="170" as="sourcePoint" />
            <mxPoint x="225" y="120" as="targetPoint" />
          </mxGeometry>
        </mxCell>
        <mxCell id="10" value="Get Diff" style="edgeLabel;html=1;align=center;verticalAlign=middle;resizable=0;points=[];fontSize=10;" vertex="1" connectable="0" parent="9">
          <mxGeometry x="-0.2" y="1" relative="1" as="geometry">
            <mxPoint x="-31" as="offset" />
          </mxGeometry>
        </mxCell>
        
        <mxCell id="11" value="" style="endArrow=classic;html=1;strokeWidth=2;exitX=1;exitY=0.5;exitDx=0;exitDy=0;entryX=0;entryY=0.5;entryDx=0;entryDy=0;dashed=1;" edge="1" parent="1" source="4" target="5">
          <mxGeometry width="50" height="50" relative="1" as="geometry">
            <mxPoint x="260" y="140" as="sourcePoint" />
            <mxPoint x="310" y="90" as="targetPoint" />
          </mxGeometry>
        </mxCell>
        <mxCell id="12" value="Read/Write Settings" style="edgeLabel;html=1;align=center;verticalAlign=middle;resizable=0;points=[];fontSize=10;" vertex="1" connectable="0" parent="11">
          <mxGeometry x="-0.2" y="1" relative="1" as="geometry">
            <mxPoint x="30" y="-9" as="offset" />
          </mxGeometry>
        </mxCell>
        
        <mxCell id="13" value="" style="endArrow=classic;html=1;strokeWidth=2;exitX=1;exitY=0.5;exitDx=0;exitDy=0;entryX=0;entryY=0.5;entryDx=0;entryDy=0;dashed=1;" edge="1" parent="1" source="6" target="7">
          <mxGeometry width="50" height="50" relative="1" as="geometry">
            <mxPoint x="260" y="290" as="sourcePoint" />
            <mxPoint x="310" y="240" as="targetPoint" />
          </mxGeometry>
        </mxCell>
        <mxCell id="14" value="Pass Diff" style="edgeLabel;html=1;align=center;verticalAlign=middle;resizable=0;points=[];fontSize=10;" vertex="1" connectable="0" parent="13">
          <mxGeometry x="-0.2" y="1" relative="1" as="geometry">
            <mxPoint x="10" y="11" as="offset" />
          </mxGeometry>
        </mxCell>
        
        <mxCell id="15" value="" style="endArrow=classic;html=1;strokeWidth=2;exitX=0.5;exitY=1;exitDx=0;exitDy=0;entryX=0.5;entryY=0;entryDx=0;entryDy=0;dashed=1;" edge="1" parent="1" source="4" target="7">
          <mxGeometry width="50" height="50" relative="1" as="geometry">
            <mxPoint x="370" y="170" as="sourcePoint" />
            <mxPoint x="420" y="120" as="targetPoint" />
            <Array as="points">
              <mxPoint x="175" y="190" />
              <mxPoint x="400" y="190" />
            </Array>
          </mxGeometry>
        </mxCell>
        <mxCell id="16" value="Get Template" style="edgeLabel;html=1;align=center;verticalAlign=middle;resizable=0;points=[];fontSize=10;" vertex="1" connectable="0" parent="15">
          <mxGeometry x="-0.2" y="1" relative="1" as="geometry">
            <mxPoint x="40" as="offset" />
          </mxGeometry>
        </mxCell>
        
        <mxCell id="17" value="" style="endArrow=classic;html=1;strokeWidth=2;exitX=1;exitY=0.5;exitDx=0;exitDy=0;entryX=0;entryY=0.5;entryDx=0;entryDy=0;dashed=1;" edge="1" parent="1" source="7" target="8">
          <mxGeometry width="50" height="50" relative="1" as="geometry">
            <mxPoint x="485" y="290" as="sourcePoint" />
            <mxPoint x="535" y="240" as="targetPoint" />
          </mxGeometry>
        </mxCell>
        <mxCell id="18" value="Template + Diff" style="edgeLabel;html=1;align=center;verticalAlign=middle;resizable=0;points=[];fontSize=10;" vertex="1" connectable="0" parent="17">
          <mxGeometry x="-0.2" y="1" relative="1" as="geometry">
            <mxPoint x="13" y="11" as="offset" />
          </mxGeometry>
        </mxCell>
        
        <mxCell id="19" value="" style="endArrow=classic;html=1;strokeWidth=2;exitX=0.5;exitY=0;exitDx=0;exitDy=0;entryX=0.5;entryY=1;entryDx=0;entryDy=0;dashed=1;" edge="1" parent="1" source="8" target="5">
          <mxGeometry width="50" height="50" relative="1" as="geometry">
            <mxPoint x="635" y="240" as="sourcePoint" />
            <mxPoint x="685" y="190" as="targetPoint" />
          </mxGeometry>
        </mxCell>
        <mxCell id="20" value="PR Description" style="edgeLabel;html=1;align=center;verticalAlign=middle;resizable=0;points=[];fontSize=10;" vertex="1" connectable="0" parent="19">
          <mxGeometry x="-0.2" y="1" relative="1" as="geometry">
            <mxPoint x="45" as="offset" />
          </mxGeometry>
        </mxCell>
        
        <!-- Feedback loop -->
        <mxCell id="21" value="" style="endArrow=classic;html=1;strokeWidth=2;exitX=0.5;exitY=0;exitDx=0;exitDy=0;entryX=0.5;entryY=1;entryDx=0;entryDy=0;dashed=1;dashPattern=1 1;" edge="1" parent="1">
          <mxGeometry width="50" height="50" relative="1" as="geometry">
            <mxPoint x="225" y="250" as="sourcePoint" />
            <mxPoint x="225" y="160" as="targetPoint" />
          </mxGeometry>
        </mxCell>
        <mxCell id="22" value="Response" style="edgeLabel;html=1;align=center;verticalAlign=middle;resizable=0;points=[];fontSize=10;" vertex="1" connectable="0" parent="21">
          <mxGeometry x="-0.2" y="1" relative="1" as="geometry">
            <mxPoint x="45" as="offset" />
          </mxGeometry>
        </mxCell>
      </root>
    </mxGraphModel>
  </diagram>
</mxfile> 